#!OML:ASF F:\VICON\USERDATA\INSTALL\rory3\rory3.ASF
:FULLY-SPECIFIED
:DEGREES
2423
root -5.89348 16.671 -4.10709 -7.36353 -62.1964 26.2861
lowerback 22.387 0.757892 1.69093
upperback 4.15838 1.50783 3.85454
thorax -8.00249 0.629868 2.82736
lowerneck -20.7239 7.63005 -4.4644
upperneck 9.26579 12.7288 -8.70357
head 6.51246 5.18971 -0.641312
rclavicle -2.38542e-014 6.36111e-015
rhumerus -20.0705 -1.01354 -74.6828
rradius 96.4483
rwrist -14.1164
rhand -9.965 24.9427
rfingers 7.12502
rthumb 16.0174 -4.4152
lclavicle -2.38542e-014 6.36111e-015
lhumerus -13.1486 11.5968 79.906
lradius 123.097
lwrist 3.30313
lhand -20.722 8.27558
lfingers 7.12502
lthumb 5.64278 38.1804
rfemur -47.6216 -6.37609 -4.14311
rtibia 57.9598
rfoot -14.7082 4.89022
rtoes 8.75265
lfemur -27.9401 12.3054 -16.4037
ltibia 42.0846
lfoot -9.14817 5.72738
ltoes -24.9016
2424
root -5.96613 16.6882 -4.02439 -9.1349 -62.7738 27.6652
lowerback 22.4376 0.748809 1.27236
upperback 4.22637 1.38764 3.77741
thorax -7.95772 0.580454 3.01714
lowerneck -20.5821 7.9597 -4.41894
upperneck 9.44865 13.1908 -8.8088
head 6.57035 5.3979 -0.626272
rclavicle 6.20208e-014 -2.8625e-014
rhumerus -19.9904 -1.20703 -74.3294
rradius 94.7468
rwrist -15.0046
rhand -9.5654 24.8136
rfingers 7.12502
rthumb 16.4021 -4.51293
lclavicle 6.20208e-014 -2.8625e-014
lhumerus -13.1294 12.4786 79.8907
lradius 123.242
lwrist 3.69513
lhand -20.8665 8.32397
lfingers 7.12502
lthumb 5.50328 38.2325
rfemur -47.0778 -6.23089 -4.91487
rtibia 58.036
rfoot -13.6036 5.89891
rtoes 8.01744
lfemur -27.7935 12.0537 -16.7108
ltibia 42.079
lfoot -8.46828 6.31123
ltoes -24.4529
2425
root -6.0381 16.7039 -3.93519 -10.4909 -63.3332 28.6915
lowerback 22.3752 0.705667 1.19316
upperback 4.23781 1.29961 3.66013
thorax -7.90706 0.538762 2.95847
lowerneck -20.3722 8.23379 -4.24916
upperneck 9.75693 13.5601 -8.93512
head 6.66655 5.55818 -0.645815
rclavicle 4.77083e-015 3.18055e-014
rhumerus -20.1804 -1.36419 -73.9346
rradius 93.1085
rwrist -15.4654
rhand -9.68883 24.8223
rfingers 7.12502
rthumb 16.2833 -4.51396
lclavicle 4.77083e-015 3.18055e-014
lhumerus -13.0476 13.1961 79.7432
lradius 123.217
lwrist 3.76108
lhand -20.7738 8.11325
lfingers 7.12502
lthumb 5.59279 38.0194
rfemur -46.6835 -6.18893 -5.59292
rtibia 58.1536
rfoot -12.087 7.22056
rtoes 8.45635
lfemur -27.9138 12.0519 -16.916
ltibia 42.3418
lfoot -7.71846 6.54603
ltoes -24.5352
2426
root -6.1099 16.7285 -3.83819 -11.4859 -64.0338 29.4114
lowerback 22.2083 0.703252 1.31017
upperback 4.22236 1.31263 3.59911
thorax -7.83241 0.541356 2.8198
lowerneck -20.0771 8.43574 -4.22384
upperneck 9.99413 13.8345 -8.93185
head 6.70378 5.68713 -0.621033
rclavicle 2.06736e-014 -2.22639e-014
rhumerus -20.5008 -1.57454 -73.4276
rradius 91.5388
rwrist -15.4735
rhand -9.72423 24.8543
rfingers 7.12502
rthumb 16.2492 -4.48474
lclavicle 2.06736e-014 -2.22639e-014
lhumerus -12.8462 13.8045 79.6279
lradius 123.07
lwrist 3.59962
lhand -20.743 8.10873
lfingers 7.12502
lthumb 5.62246 38.0141
rfemur -46.4339 -6.06364 -6.12106
rtibia 58.2982
rfoot -10.2049 8.55779
rtoes 10.4973
lfemur -28.1852 12.1689 -16.9893
ltibia 42.8141
lfoot -6.99551 6.57876
ltoes -23.3229
2427
root -6.17787 16.7568 -3.73787 -12.3322 -64.7858 30.0365
lowerback 22.0411 0.736031 1.4195
upperback 4.15433 1.38115 3.63836
thorax -7.82027 0.572347 2.78073
lowerneck -19.8317 8.6364 -4.20646
upperneck 10.36 14.1375 -8.97986
head 6.79615 5.8136 -0.60256
rclavicle -3.49861e-014 2.54444e-014
rhumerus -20.98 -1.77725 -72.6844
rradius 90.1397
rwrist -15.24
rhand -9.4541 24.9082
rfingers 7.12502
rthumb 16.5093 -4.40944
lclavicle -3.49861e-014 2.54444e-014
lhumerus -12.6946 14.454 79.5446
lradius 122.878
lwrist 3.30378
lhand -20.7285 8.35625
lfingers 7.12502
lthumb 5.63652 38.2613
rfemur -46.3671 -6.06105 -6.5189
rtibia 58.4972
rfoot -7.85513 9.6986
rtoes 12.8096
lfemur -28.5687 12.4254 -17.0299
ltibia 43.3922
lfoot -6.51262 6.13686
ltoes -21.0352
2428
root -6.24247 16.7846 -3.63799 -12.495 -65.5444 30.0786
lowerback 21.7413 0.682346 1.72238
upperback 4.09178 1.38152 3.76493
thorax -7.72646 0.566554 2.74538
lowerneck -19.7596 8.89529 -4.0822
upperneck 10.7645 14.5381 -9.19419
head 6.95475 5.96517 -0.630297
rclavicle 0 -2.22639e-014
rhumerus -21.4058 -1.79262 -71.9557
rradius 88.917
rwrist -14.869
rhand -9.01866 24.9264
rfingers 7.12502
rthumb 16.9285 -4.35587
lclavicle 0 -2.22639e-014
lhumerus -12.539 15.374 79.4602
lradius 122.717
lwrist 2.88776
lhand -20.7411 8.43829
lfingers 7.12502
lthumb 5.62434 38.3436
rfemur -46.5509 -6.28321 -6.56018
rtibia 58.7442
rfoot -5.30776 10.5207
rtoes 14.4064
lfemur -29.1866 12.908 -16.8566
ltibia 43.9434
lfoot -6.08302 4.8946
ltoes -19.3722
2429
root -6.30602 16.8135 -3.5354 -12.3553 -66.3305 29.8683
lowerback 21.3876 0.594066 2.10285
upperback 4.07863 1.34703 3.92767
thorax -7.54719 0.541532 2.71407
lowerneck -19.8834 9.1743 -4.00275
upperneck 11.1394 14.9851 -9.37727
head 7.13302 6.13357 -0.627865
rclavicle -4.6118e-014 1.59028e-014
rhumerus -21.6959 -1.72392 -71.3302
rradius 87.8726
rwrist -14.7225
rhand -8.73395 24.8594
rfingers 7.12502
rthumb 17.2025 -4.39916
lclavicle -4.6118e-014 1.59028e-014
lhumerus -12.3719 16.421 79.3825
lradius 122.651
lwrist 2.54076
lhand -20.7222 8.40731
lfingers 7.12502
lthumb 5.64252 38.3122
rfemur -46.8895 -6.60107 -6.45225
rtibia 59.013
rfoot -2.81605 11.0234
rtoes 14.9085
lfemur -29.8642 13.4881 -16.6099
ltibia 44.3498
lfoot -5.82715 2.96345
ltoes -20.111
2430
root -6.37 16.8437 -3.43055 -12.5953 -66.9642 29.9245
lowerback 21.2765 0.544641 2.38057
upperback 4.04729 1.34821 4.07369
thorax -7.51961 0.535454 2.71471
lowerneck -19.814 9.3727 -4.04633
upperneck 11.3328 15.3042 -9.48124
head 7.20101 6.2626 -0.611832
rclavicle -4.45278e-014 -1.59028e-014
rhumerus -22.2431 -1.7456 -70.5707
rradius 87.1954
rwrist -15.1425
rhand -8.41948 24.7355
rfingers 7.12502
rthumb 17.5052 -4.49638
lclavicle -4.45278e-014 -1.59028e-014
lhumerus -12.3744 17.1745 79.274
lradius 122.701
lwrist 2.35747
lhand -20.5932 8.3577
lfingers 7.12502
lthumb 5.76713 38.2592
rfemur -47.0469 -6.90884 -6.57363
rtibia 59.293
rfoot -0.55455 11.3414
rtoes 14.8287
lfemur -30.3373 13.8701 -16.4963
ltibia 44.5909
lfoot -5.95733 0.729467
ltoes -20.4941
2431
root -6.43476 16.8778 -3.32298 -13.38 -67.1558 30.2448
lowerback 21.5727 0.368064 2.70384
upperback 3.99442 1.20613 4.09671
thorax -7.72307 0.457598 2.59704
lowerneck -19.5694 9.48902 -4.07855
upperneck 11.4599 15.4794 -9.54301
head 7.21095 6.33879 -0.611968
rclavicle -1.90833e-014 4.13472e-014
rhumerus -23.0561 -1.97094 -69.8314
rradius 86.7324
rwrist -15.4922
rhand -7.90345 24.8475
rfingers 7.12502
rthumb 18.0017 -4.33944
lclavicle -1.90833e-014 4.13472e-014
lhumerus -12.5558 17.4996 78.8366
lradius 122.803
lwrist 2.43276
lhand -20.7759 8.27964
lfingers 7.12502
lthumb 5.59074 38.1859
rfemur -46.613 -7.37123 -7.02884
rtibia 59.5361
rfoot 1.27361 11.6263
rtoes 13.2358
lfemur -30.4626 13.7982 -16.5683
ltibia 44.6421
lfoot -6.3223 -1.52016
ltoes -19.8647
2432
root -6.50273 16.9004 -3.22804 -14.2229 -67.8599 30.9091
lowerback 21.5933 0.465026 2.71359
upperback 3.93588 1.33865 4.10107
thorax -7.80185 0.52018 2.56039
lowerneck -19.5632 9.58766 -4.00742
upperneck 11.7232 15.6349 -9.57165
head 7.30944 6.3941 -0.604543
rclavicle -4.92986e-014 0
rhumerus -23.9679 -2.42514 -69.1829
rradius 86.4705
rwrist -15.8361
rhand -7.14843 24.8929
rfingers 7.12502
rthumb 18.7281 -4.22553
lclavicle -4.92986e-014 0
lhumerus -12.5945 17.5903 78.0899
lradius 122.896
lwrist 2.74936
lhand -21.1619 8.49997
lfingers 7.12502
lthumb 5.21807 38.4157
rfemur -46.7319 -7.39504 -7.40132
rtibia 59.7603
rfoot 2.31106 11.4913
rtoes 8.88057
lfemur -30.8298 14.3196 -16.614
ltibia 44.5522
lfoot -6.70173 -3.85685
ltoes -20.3422
2433
root -6.57264 16.9127 -3.13192 -14.9728 -68.4389 31.3773
lowerback 21.5791 0.495423 2.78264
upperback 3.99024 1.38347 4.08173
thorax -7.73342 0.537991 2.48667
lowerneck -19.7913 9.73762 -3.85098
upperneck 11.9808 15.8515 -9.57559
head 7.4509 6.47633 -0.582735
rclavicle 7.63333e-014 3.18055e-015
rhumerus -24.853 -2.87457 -68.6366
rradius 86.4064
rwrist -16.5351
rhand -6.60459 24.7637
rfingers 7.12502
rthumb 19.2511 -4.30346
lclavicle 7.63333e-014 3.18055e-015
lhumerus -12.3819 17.8243 77.2568
lradius 123.057
lwrist 3.32669
lhand -21.4135 8.82111
lfingers 7.12502
lthumb 4.9751 38.7427
rfemur -46.619 -7.37036 -7.78348
rtibia 59.9365
rfoot 2.59504 10.8034
rtoes 4.45338
lfemur -31.1056 14.5625 -16.4617
ltibia 44.3191
lfoot -6.89955 -6.09906
ltoes -21.3947
